PathFileType	4	(X/Y/Z)	..\data\2015043\dynamic\2015043_C5_05.trc
DataRate	CameraRate	NumFrames	NumMarkers	Units	OrigDataRate	OrigDataStartFrame	OrigNumFrames
100.000000	100.000000	4	52	mm	100.000000	62	167
Frame#	Time	L_IAS			L_IPS			R_IPS			R_IAS			L_FTC			L_FLE			L_FME			L_FAX			L_TTC			L_FAL			L_TAM			L_FCC			L_FM1			L_FM2			L_FM5			R_FTC			R_FLE			R_FME			R_FAX			R_TTC			R_FAL			R_TAM			R_FCC			R_FM1			R_FM2			R_FM5			CV7			TV10			SXS			SJN			L_SIA			L_SRS			L_SAA			L_SAE			L_HLE			L_HME			L_UOA			L_RSP			L_UHE			L_HM2			L_HM5			R_SIA			R_SRS			R_SAA			R_SAE			R_HLE			R_HME			R_UOA			R_RSP			R_UHE			R_HM2			R_HM5			
		X1	Y1	Z1	X2	Y2	Z2	X3	Y3	Z3	X4	Y4	Z4	X5	Y5	Z5	X6	Y6	Z6	X7	Y7	Z7	X8	Y8	Z8	X9	Y9	Z9	X10	Y10	Z10	X11	Y11	Z11	X12	Y12	Z12	X13	Y13	Z13	X14	Y14	Z14	X15	Y15	Z15	X16	Y16	Z16	X17	Y17	Z17	X18	Y18	Z18	X19	Y19	Z19	X20	Y20	Z20	X21	Y21	Z21	X22	Y22	Z22	X23	Y23	Z23	X24	Y24	Z24	X25	Y25	Z25	X26	Y26	Z26	X27	Y27	Z27	X28	Y28	Z28	X29	Y29	Z29	X30	Y30	Z30	X31	Y31	Z31	X32	Y32	Z32	X33	Y33	Z33	X34	Y34	Z34	X35	Y35	Z35	X36	Y36	Z36	X37	Y37	Z37	X38	Y38	Z38	X39	Y39	Z39	X40	Y40	Z40	X41	Y41	Z41	X42	Y42	Z42	X43	Y43	Z43	X44	Y44	Z44	X45	Y45	Z45	X46	Y46	Z46	X47	Y47	Z47	X48	Y48	Z48	X49	Y49	Z49	X50	Y50	Z50	X51	Y51	Z51	X52	Y52	Z52	

63	0.62	-384.4351196289064	977.186706542969	139.1263275146484	-566.0311889648439	989.311218261719	201.0773468017578	-567.8091430664064	993.936218261719	298.440673828125	-395.8995056152345	979.056823730469	382.5763854980469	-456.5810852050782	883.372009277344	78.11143493652339	-291.5788879394532	491.1138610839845	95.57102203369138	-285.7303771972657	482.1707763671876	214.8054656982422	-285.1526489257813	420.3526306152345	89.81219482421874	-222.6093902587891	424.1122131347657	143.4756164550781	-232.5739746093751	78.94305419921876	138.5115814208984	-197.6511230468751	95.63723754882814	224.2764739990235	-267.6864318847657	21.41482925415039	186.7535095214844	-67.33827972412114	49.05671310424806	202.270980834961	-72.68823242187503	58.57508468627931	140.2486724853516	-118.5293197631836	34.03335189819337	99.45243072509767	-511.5933227539064	888.8528442382815	421.3353271484376	-569.1748046875001	477.7084350585939	397.3614501953126	-553.0446166992189	468.569549560547	272.4371948242188	-606.7973632812501	420.2506408691407	401.7962341308594	-553.4076538085939	379.9577636718751	343.2867431640625	-819.7354125976565	142.5385131835938	360.7941589355468	-779.963806152344	139.6058349609375	271.7199707031249	-880.367614746094	120.309799194336	311.2389831542968	-704.3197631835939	26.1070957183838	288.5964965820312	-704.3221435546876	34.67220687866212	346.8656921386718	-760.7027587890626	36.15948867797852	395.8857116699219	-504.381805419922	1494.707153320313	238.3153533935547	-567.1150512695314	1267.01416015625	252.6466674804688	-336.4746398925782	1262.079223632813	243.6404876708985	-388.0835571289064	1412.674438476563	239.3145751953125	-601.0258178710939	1290.393310546875	167.031997680664	-566.1500244140626	1415.986572265625	156.2343292236328	-521.1704711914064	1416.995483398438	65.59137725830074	-483.7034301757814	1416.924682617188	40.50917434692378	-558.7496948242189	1096.27880859375	-28.59898185729988	-574.6972045898439	1082.427734375	57.04479980468744	-595.2909545898439	1071.219360351563	1.846772313117909	-481.3174438476564	834.3344726562502	-25.18451499938972	-537.8233642578126	837.7735595703127	-79.76245880126962	-470.8638916015626	740.5541992187501	-39.22080230712897	-563.6838378906251	770.639099121094	-78.30969238281259	-590.4442138671876	1303.12109375	339.0370483398438	-561.1752319335939	1423.475830078125	329.6530151367188	-519.3261718750001	1427.952880859375	425.7156066894532	-484.1653137207033	1425.794189453125	458.4522399902344	-458.4140930175783	1099.355102539063	544.2943725585939	-489.5706787109377	1080.682861328125	480.6987304687501	-486.0232849121095	1058.549194335938	517.2408447265625	-266.5192871093751	904.777038574219	504.1552734375001	-326.4575805664064	874.466735839844	551.2590332031251	-209.7385559082032	837.4505615234377	509.5083618164064	-296.2185363769532	807.0805664062502	557.7755126953126	
64	0.63	-370.2575378417969	978.1254882812502	137.097183227539	-551.8195190429689	990.212341308594	199.5162811279297	-553.4293212890626	994.3884277343752	296.96875	-381.3987121582032	979.0350341796877	380.4346313476562	-442.354949951172	884.5634765625002	76.11943817138668	-277.9778137207032	491.8257446289064	95.22946166992186	-272.7567138671876	483.3028564453126	214.0430450439453	-272.5919799804688	420.6293029785157	89.52030944824217	-210.5147247314454	423.2308654785157	143.8061218261719	-229.9642486572266	78.08276367187501	138.924072265625	-194.9707946777345	93.53279876708986	225.0003967285157	-267.3296508789063	21.80747222900391	186.8322143554688	-65.60758972167973	42.31804275512696	202.1849670410157	-70.37234497070315	52.67776489257814	140.1712036132813	-118.1543273925782	30.23509979248048	98.6621551513672	-496.9243164062502	888.7791748046877	419.7515869140626	-552.8973388671876	477.5375061035157	397.3660278320313	-535.1293334960939	466.8587036132814	272.5906677246094	-591.6646728515626	421.2017211914064	402.1347656250001	-538.1652221679689	378.7129821777344	345.1793518066406	-812.265075683594	149.6503448486328	361.3411560058593	-771.1018066406252	144.4627838134766	273.1796264648437	-872.4659423828127	130.4796752929688	310.5799560546874	-704.1441040039064	26.70715904235841	288.3372802734374	-704.0048828125001	34.71501541137696	346.6291198730468	-759.3486938476564	38.69982910156251	395.26513671875	-492.105682373047	1495.07421875	235.7491607666016	-553.8778686523439	1267.020141601563	250.5581359863281	-323.2577209472657	1263.143432617188	241.5704040527344	-375.5234680175782	1413.408813476563	236.9405822753906	-587.8128051757814	1290.01025390625	164.8267974853515	-553.5678710937501	1415.80322265625	153.882568359375	-508.5731201171876	1416.974853515625	63.23189926147456	-471.1328430175782	1417.06982421875	38.136791229248	-545.0060424804689	1095.978515625	-30.36248779296882	-561.0358276367189	1082.376953125	55.29871749877924	-581.5296020507814	1071.041625976563	0.04741465672843489	-467.4090270996095	834.1030883789065	-26.08465576171881	-523.7101440429689	837.4151611328127	-80.90328979492196	-457.0447998046876	740.2196655273439	-39.57821655273444	-549.6741943359376	770.3001708984377	-79.27507019042977	-577.4219970703126	1303.060668945313	336.61669921875	-548.8336791992189	1423.664306640625	327.1538696289062	-507.1489868164064	1428.519897460938	423.1686401367188	-472.105682373047	1426.562744140625	455.9681091308594	-447.1778564453127	1100.367919921875	542.0891723632814	-477.9888610839845	1081.683959960938	478.3916931152344	-474.7042541503908	1059.466918945313	514.927001953125	-254.718475341797	906.1043701171877	502.4621276855469	-314.8093872070314	875.568542480469	549.1553344726564	-197.7299346923829	838.976257324219	508.0116577148439	-284.4053039550782	808.1977539062502	555.6987304687501	
65	0.64	-356.1812744140626	979.206726074219	135.0113983154297	-537.7139282226564	991.240661621094	197.9333801269531	-539.1609497070314	994.9653930664065	295.4667053222656	-367.0151977539064	979.132507324219	378.2150268554688	-428.2865600585939	885.8764648437502	74.07031249999996	-264.8177490234376	492.4772033691407	94.86706542968749	-260.2578125000001	484.3755798339845	213.3309020996094	-260.4570312500001	420.9272766113282	89.23513793945311	-198.8502655029298	422.4054565429689	144.112060546875	-227.6015167236329	77.48269653320314	139.2329406738281	-192.6592407226563	91.79006958007814	225.6699981689453	-267.0597839355469	22.33227729797364	186.7618408203125	-64.17363739013676	36.30504989624024	202.1846618652344	-68.28294372558597	47.52395629882813	140.1597595214844	-117.8728637695313	27.08220481872559	97.78207397460939	-482.2416992187502	888.7939453125002	418.1737365722657	-535.5533447265626	477.214569091797	397.4706115722657	-515.9934692382814	464.9256896972657	272.9408264160156	-575.4335937500001	422.1358947753907	402.6069641113282	-521.8283081054689	377.4029235839844	347.2505493164062	-803.5411376953127	157.1792907714844	361.6453857421874	-760.9829711914064	149.5395812988282	274.5356445312499	-863.1566162109377	141.2355346679688	309.5636291503906	-703.3817138671876	27.75129890441895	288.2017517089843	-703.2211303710939	35.2109718322754	346.4314575195312	-757.3863525390626	42.00292205810548	394.5790710449219	-479.8211975097658	1495.555908203125	233.2159423828125	-540.6590576171876	1267.177856445313	248.5225982666016	-310.0558166503907	1264.319702148438	239.569076538086	-363.013885498047	1414.269653320313	234.6124725341797	-574.5606079101564	1289.753173828125	162.6070556640625	-540.9655761718751	1415.747314453125	151.5677490234375	-495.9162902832032	1417.090942382813	60.90441894531245	-458.4951171875001	1417.348754882813	35.80198669433589	-530.9884643554689	1095.770141601563	-32.16659164428718	-547.1307373046876	1082.397827148438	53.50380325317378	-567.4976196289064	1070.909057617188	-1.814432740211557	-452.9328918457032	834.0480957031252	-26.98254394531256	-509.0014038085939	837.1661376953127	-82.05239105224616	-442.514862060547	740.0826416015626	-39.9498367309571	-534.9874267578126	770.041931152344	-80.26185607910165	-564.3975219726564	1303.160400390625	334.260986328125	-536.4748535156251	1424.003784179688	324.70849609375	-494.9377746582033	1429.263305664063	420.6660766601563	-460.0157165527345	1427.497680664063	453.5273132324219	-436.1288452148439	1101.501220703125	539.8094482421876	-466.6049804687502	1082.854125976563	475.9763793945313	-463.6089782714845	1060.549682617188	512.5028076171876	-243.3220214843751	907.3397216796877	500.7376708984376	-303.6307983398439	876.649108886719	546.9753417968751	-186.2337646484376	840.3206787109377	506.4856567382814	-273.162322998047	809.2454223632815	553.5379638671876	
66	0.65	-342.2557678222657	980.3958129882815	132.8956756591797	-523.7764282226564	992.355895996094	196.3141632080078	-525.0828857421876	995.6260986328127	293.9173583984375	-352.841522216797	979.3397216796877	375.9537048339844	-414.4134826660157	887.2686157226565	71.98021697998043	-252.1717681884766	493.0305786132814	94.48848724365233	-248.307357788086	485.3392333984376	212.6858062744141	-248.8342742919922	421.2111206054689	88.96198272705077	-187.6844787597657	421.6175231933595	144.39111328125	-225.4366607666016	77.1357879638672	139.4569549560547	-190.6629028320313	90.42003631591798	226.2916259765625	-266.7691345214844	22.93949508666993	186.5680084228516	-62.96203613281254	31.1743507385254	202.3018493652344	-66.36378479003909	43.25012588500977	140.2521514892578	-117.5674362182618	24.63777542114259	96.8862762451172	-467.6485900878908	888.8728027343752	416.5901489257813	-517.1513671875001	476.7315063476564	397.6589965820313	-495.665496826172	462.8157348632814	273.4646301269531	-558.0818481445314	423.0292358398439	403.1804809570313	-504.3943786621095	376.0505371093751	349.4108276367188	-793.4824829101565	165.0741882324219	361.6440734863281	-749.5834960937501	154.8168182373047	275.7038269042968	-852.3833007812502	152.4397583007813	308.1625976562499	-701.7482299804689	29.32697677612305	288.2785034179687	-701.7085571289064	36.30360412597657	346.3439331054687	-754.5956420898439	46.18634796142579	393.8670654296875	-467.5307006835939	1496.131713867188	230.7345123291016	-527.4959106445314	1267.48291015625	246.5497894287109	-296.9120178222657	1265.556762695313	237.6658630371094	-350.5715332031251	1415.219848632813	232.3617706298828	-561.3019409179689	1289.628051757813	160.3787841796875	-528.3436279296876	1415.815795898438	149.297378540039	-483.1896057128907	1417.328002929688	58.62096786499019	-445.7740783691407	1417.734008789063	33.52077484130854	-516.7054443359376	1095.634765625	-34.0120925903321	-533.0039062500001	1082.46728515625	51.65435409545893	-553.2080688476564	1070.797485351563	-3.745244979858467	-437.8941040039064	834.1541137695315	-27.87392044067389	-493.6983947753907	837.0093383789065	-83.20799255371101	-427.2727966308595	740.1301269531251	-40.33780288696295	-519.6179809570314	769.8462524414065	-81.27304840087898	-551.4071655273439	1303.424560546875	331.98828125	-524.1115112304689	1424.489013671875	322.3367309570312	-482.704315185547	1430.166015625	418.2327880859376	-447.9041137695314	1428.57666015625	451.1543884277344	-425.2493286132814	1102.724975585938	537.4740600585939	-455.4057617187502	1084.162841796875	473.4736633300782	-452.7166748046877	1061.767700195313	509.9874267578126	-232.3121643066407	908.456726074219	498.9820861816407	-292.898406982422	877.684509277344	544.7321166992189	-175.236801147461	841.4500122070315	504.9180908203126	-262.468963623047	810.201110839844	551.3015136718751	
